<?xml version="1.0" standalone="no"?>
<svg xmlns="http://www.w3.org/2000/svg" viewBox="0 0 112.9 25.52" width="112.9" height="25.52"><path fill="#ec5353" fill-rule="nonzero" d="M4.68 19.37Q3.29 19.37 2.22 18.78Q1.15 18.19 0.58 17.20Q0 16.20 0 15L0 15Q0 13.54 0.84 12.17Q1.68 10.80 3.11 9.88Q4.54 8.95 6.22 8.78L6.22 8.78Q5.30 8.04 4.85 7.04Q4.39 6.05 4.39 4.99L4.39 4.99Q4.39 3.72 5.04 2.57Q5.69 1.42 6.82 0.72Q7.94 0.02 9.34 0.02L9.34 0.02Q10.66 0.02 11.36 0.70Q12.07 1.37 12.07 2.62L12.07 2.62Q12.07 3.48 11.76 4.32Q11.45 5.16 10.99 5.70Q10.54 6.24 10.15 6.24L10.15 6.24Q9.89 6.24 9.65 6.02Q9.41 5.81 9.26 5.47L9.26 5.47Q11.28 3.72 11.28 2.14L11.28 2.14Q11.28 1.39 10.85 0.98Q10.42 0.58 9.58 0.58L9.58 0.58Q7.97 0.58 7.06 1.96Q6.14 3.34 6.14 5.40L6.14 5.40Q6.14 7.82 7.54 9.02L7.54 9.02Q6 9.29 4.79 10.22Q3.58 11.16 2.90 12.47Q2.23 13.78 2.23 15.07L2.23 15.07Q2.23 16.44 2.99 17.50Q3.74 18.55 5.30 18.55L5.30 18.55Q6.53 18.55 7.80 17.84Q9.07 17.14 10.13 15.96Q11.18 14.78 11.83 13.39L11.83 13.39L12.17 13.63Q10.82 16.22 8.90 17.80Q6.98 19.37 4.68 19.37L4.68 19.37ZM23.42 18.02Q22.63 18.02 22.22 17.53Q21.82 17.04 21.82 16.27L21.82 16.27Q21.82 15.62 22.20 14.38L22.20 14.38Q22.32 13.97 22.43 13.56Q22.54 13.15 22.54 12.86L22.54 12.86Q22.54 12.43 22.33 12.22Q22.13 12 21.84 12L21.84 12Q21.29 12 20.65 12.78Q20.02 13.56 18.70 15.58L18.70 15.58Q18.36 16.10 17.76 17.35L17.76 17.35L17.54 17.81Q17.16 17.81 16.74 17.68Q16.32 17.54 16.32 17.33L16.32 17.33Q16.32 17.16 16.73 16.06L16.73 16.06Q17.23 14.57 17.53 13.55Q17.83 12.53 17.83 11.81L17.83 11.81Q17.83 10.90 17.23 10.90L17.23 10.90Q16.56 10.90 15.49 11.98Q14.42 13.06 13.39 14.70Q12.36 16.34 11.78 17.93L11.78 17.93Q11.42 17.93 10.96 17.76Q10.49 17.59 10.49 17.42L10.49 17.42Q10.49 17.35 10.82 16.30L10.82 16.30Q11.38 14.69 11.75 13.34Q12.12 12 12.14 11.02L12.14 11.02Q12.31 10.82 12.62 10.67Q12.94 10.51 13.25 10.51L13.25 10.51Q13.90 10.51 13.90 11.14L13.90 11.14Q13.90 11.78 13.27 13.87L13.27 13.87Q14.45 12 15.80 10.66Q17.16 9.31 18.34 9.31L18.34 9.31Q19.03 9.31 19.33 9.82Q19.63 10.32 19.63 11.14L19.63 11.14Q19.63 11.95 19.39 12.91Q19.15 13.87 18.89 14.52L18.89 14.52Q19.80 12.86 20.78 11.84Q21.77 10.82 22.87 10.82L22.87 10.82Q23.59 10.82 23.92 11.26Q24.24 11.69 24.24 12.36L24.24 12.36Q24.24 12.82 24.12 13.33Q24 13.85 23.76 14.59L23.76 14.59Q23.35 15.86 23.35 16.37L23.35 16.37Q23.35 17.18 24.07 17.18L24.07 17.18Q24.96 17.18 25.75 16.09Q26.54 15 27.29 13.39L27.29 13.39L27.58 13.73Q26.90 15.50 25.82 16.76Q24.74 18.02 23.42 18.02L23.42 18.02ZM31.44 6.91Q31.01 6.91 30.73 6.71Q30.46 6.50 30.46 6.12L30.46 6.12Q30.46 5.64 31.03 5.26Q31.61 4.87 32.21 4.87L32.21 4.87Q33 4.87 33 5.62L33 5.62Q33 6.07 32.51 6.49Q32.02 6.91 31.44 6.91L31.44 6.91ZM28.56 17.90Q27.67 17.90 27.19 17.34Q26.71 16.78 26.71 15.89L26.71 15.89Q26.71 14.95 27.25 13.30Q27.79 11.64 28.60 10.39Q29.40 9.14 30.17 9.14L30.17 9.14Q30.38 9.14 30.54 9.29Q30.70 9.43 30.70 9.67L30.70 9.67Q30.70 10.01 29.93 11.28L29.93 11.28Q29.14 12.60 28.67 13.64Q28.20 14.69 28.20 15.62L28.20 15.62Q28.20 16.46 28.48 16.76Q28.75 17.06 29.38 17.06L29.38 17.06Q31.25 17.06 33.07 13.39L33.07 13.39L33.29 13.63Q32.62 15.65 31.31 16.78Q30 17.90 28.56 17.90L28.56 17.90ZM34.61 18Q33.62 18 33.16 17.33Q32.69 16.66 32.69 15.53L32.69 15.53Q32.69 13.37 34.18 9.66Q35.66 5.95 37.50 2.98Q39.34 0 40.15 0L40.15 0Q40.49 0 40.72 0.59Q40.94 1.18 40.94 1.78L40.94 1.78Q40.94 2.88 40.04 5.03Q39.14 7.18 37.68 9.38Q36.22 11.59 34.56 12.96L34.56 12.96Q34.25 14.35 34.25 15.38L34.25 15.38Q34.25 17.23 35.30 17.23L35.30 17.23Q36.19 17.23 37.12 16.10Q38.04 14.98 38.76 13.39L38.76 13.39L39.12 13.58Q37.06 18 34.61 18L34.61 18ZM34.78 12.14Q36.10 10.82 37.36 8.82Q38.62 6.82 39.41 4.98Q40.20 3.14 40.20 2.33L40.20 2.33Q40.20 1.94 40.03 1.94L40.03 1.94Q39.70 1.94 38.65 3.59Q37.61 5.23 36.50 7.61Q35.40 9.98 34.78 12.14L34.78 12.14ZM39.31 24Q38.66 24 38.23 23.66Q37.80 23.33 37.80 22.73L37.80 22.73Q37.80 21.77 38.41 21.04Q39.02 20.30 39.91 19.76Q40.80 19.22 42.46 18.38L42.46 18.38Q43.18 16.54 43.80 13.99L43.80 13.99Q42.94 15.41 42.07 16.22Q41.21 17.04 40.30 17.04L40.30 17.04Q39.53 17.04 38.95 16.54Q38.38 16.03 38.38 15.10L38.38 15.10Q38.38 14.23 38.76 12.98Q39.14 11.74 39.65 10.80Q40.15 9.86 40.49 9.86L40.49 9.86Q40.70 9.86 41.12 10.04Q41.54 10.22 41.54 10.42L41.54 10.42Q41.06 11.11 40.51 12.66Q39.96 14.21 39.96 15.12L39.96 15.12Q39.96 16.08 40.82 16.08L40.82 16.08Q41.47 16.08 42.35 15.19Q43.22 14.30 44.02 13.01L44.02 13.01Q44.14 12.60 44.26 11.90L44.26 11.90Q44.35 11.45 44.65 11.06Q44.95 10.68 45.48 10.68L45.48 10.68Q45.70 10.68 45.98 10.75L45.98 10.75Q45.98 11.40 45.44 13.42Q44.90 15.43 44.11 17.47L44.11 17.47Q45.31 16.99 46.37 15.97Q47.42 14.95 48.07 13.39L48.07 13.39L48.38 13.63Q47.50 16.44 43.85 18.12L43.85 18.12Q42.79 20.71 41.63 22.36Q40.46 24 39.31 24L39.31 24ZM39.19 23.23Q39.46 23.23 39.94 22.79Q40.42 22.34 41.02 21.38Q41.62 20.42 42.22 18.96L42.22 18.96Q40.94 19.63 40.21 20.10Q39.48 20.57 39.01 21.17Q38.54 21.77 38.54 22.51L38.54 22.51Q38.54 22.75 38.71 22.99Q38.88 23.23 39.19 23.23L39.19 23.23ZM56.30 7.58Q56.14 7.51 56.05 7.31Q55.97 7.10 55.97 6.96L55.97 6.96Q55.97 6.67 56.41 5.94Q56.86 5.21 57.44 4.63Q58.03 4.06 58.46 4.06L58.46 4.06Q58.92 4.06 58.99 4.80L58.99 4.80Q57.22 6.34 56.30 7.58L56.30 7.58ZM59.38 18.50Q57.82 18.50 57.10 17.57Q56.38 16.63 56.38 15.36L56.38 15.36Q56.38 14.40 56.71 14.00Q57.05 13.61 57.44 13.44Q57.84 13.27 57.91 13.20L57.91 13.20Q59.45 11.52 60.29 9.72L60.29 9.72L60.29 9.43Q60.29 8.62 60.56 8.21Q60.84 7.80 61.22 7.80L61.22 7.80Q61.42 7.80 61.51 7.88Q61.61 7.97 61.61 8.11L61.61 8.11Q61.61 8.21 61.54 8.51Q61.46 8.81 61.46 9.17L61.46 9.17Q61.46 9.65 61.60 10.19Q61.73 10.73 62.02 11.59L62.02 11.59Q62.35 12.62 62.53 13.39Q62.71 14.16 62.71 14.95L62.71 14.95Q62.71 15.58 62.57 16.13L62.57 16.13Q63.43 15.98 64.18 15.35Q64.92 14.71 65.59 13.42L65.59 13.42L65.81 13.66Q65.38 14.90 64.49 15.62Q63.60 16.34 62.45 16.51L62.45 16.51Q62.09 17.50 61.27 18Q60.46 18.50 59.38 18.50L59.38 18.50ZM61.06 16.10Q61.15 15.48 61.15 14.98L61.15 14.98Q61.15 14.26 61.03 13.54Q60.91 12.82 60.67 11.88L60.67 11.88Q60.46 10.92 60.41 10.63L60.41 10.63Q59.18 12.65 58.08 13.75L58.08 13.75Q58.46 14.59 59.24 15.24Q60.02 15.89 61.06 16.10L61.06 16.10ZM59.42 17.66Q60.53 17.66 60.94 16.49L60.94 16.49Q59.98 16.30 59.18 15.73Q58.39 15.17 57.98 14.50L57.98 14.50Q57.46 14.52 57.46 15.34L57.46 15.34Q57.46 16.25 58.00 16.96Q58.54 17.66 59.42 17.66L59.42 17.66Z" transform="translate(0, 0.76)"></path><line x1="74.808" y1="2%" x2="74.808" y2="98%" stroke="#ec5353" stroke-linecap="round"></line><g fill="#ffb39f" color="#ffb39f" transform="translate(83.808 0) scale(0.58)"><svg width="50.0" height="44.0" x="0.0" y="0.0" viewBox="0 0 50 44"><path fill="currentColor" fill-rule="evenodd" d="M44.448 20.802l-2.514 2.514-1.677-1.676 2.515-2.514a8.433 8.433 0 0 0 2.454-5.926c0-2.215-.898-4.31-2.454-5.927a8.346 8.346 0 0 0-11.853 0l-2.514 2.514-1.676-1.676 2.514-2.514c4.19-4.19 11.014-4.19 15.265 0 4.13 4.13 4.13 11.015-.06 15.205zm-7.603-2.574l2.514-2.514c.659-.659 1.078-1.557 1.078-2.514 0-.958-.36-1.856-1.078-2.515-.718-.658-1.556-1.077-2.514-1.077-.958 0-1.855.36-2.514 1.077L31.817 13.2l-1.676-1.677 2.514-2.514a5.961 5.961 0 0 1 8.44 0c1.138 1.138 1.736 2.634 1.736 4.25 0 1.617-.598 3.113-1.736 4.25l-2.514 2.515-1.736-1.796zm-3.412-3.352l2.514-2.514c.48-.48 1.257-.48 1.676 0 .24.239.36.538.36.838 0 .299-.12.598-.36.838l-2.454 2.514-1.736-1.676zM3.861 3.86a13.151 13.151 0 0 1 18.617 0l2.515 2.514 2.574-2.514a13.151 13.151 0 0 1 18.617 0c5.088 5.148 5.088 13.47 0 18.677l-4.19 4.19-21.192-21.19c-4.25-4.191-11.074-4.191-15.265 0-4.19 4.25-4.19 11.074 0 15.264L26.67 41.993l-1.676 1.677L3.86 22.478a13.151 13.151 0 0 1 0-18.617zm9.279.958c2.215 0 4.37.898 5.926 2.454l21.192 21.192-1.677 1.676-21.19-21.192c-1.138-1.137-2.635-1.736-4.251-1.736-1.616 0-3.113.599-4.25 1.736-1.138 1.138-1.736 2.634-1.736 4.25 0 1.617.598 3.113 1.736 4.25l21.19 21.192-1.675 1.616L7.214 19.126A8.433 8.433 0 0 1 4.759 13.2c0-2.215.898-4.37 2.455-5.927A8.433 8.433 0 0 1 13.14 4.82zm2.574 5.806l21.192 21.192-1.737 1.676-21.191-21.191a1.157 1.157 0 0 0-1.676 0 1.157 1.157 0 0 0 0 1.676l21.131 21.191-1.676 1.676-21.132-21.131c-1.376-1.377-1.376-3.652 0-5.089 1.377-1.376 3.652-1.376 5.089 0z"></path></svg></g></svg>